<svg xmlns="http://www.w3.org/2000/svg" width="517" height="148" viewBox="0 0 517 148">
  <g fill="none" fill-rule="evenodd" transform="translate(4 -20)">
    <path fill="#111517" d="M187.25,131 L185.75,131 C179.75,131 174.65,128.9 170.45,124.55 C166.1,120.35 164,115.25 164,109.1 L164,66.35 C164,47.75 164.15,36.35 164.45,32.15 C164.75,28.1 166.7,26 170.15,26 C173.6,26 175.4,27.5 175.85,30.35 C176,31.4 176,33.35 176.15,36.5 C176.15,40.1 176.3,43.1 176.45,45.65 C176.6,49.1 178.7,51.05 182.6,51.8 C186.5,52.55 188.45,54.5 188.45,57.65 C188.45,61.1 186.5,63.05 182.75,63.8 C178.85,64.55 176.75,66.5 176.6,69.5 C176.3,73.85 176.15,76.7 176.3,78.2 L176.3,109.1 C176.3,111.65 177.2,113.9 179.15,115.85 C181.1,117.8 183.2,118.7 185.75,118.7 L187.25,118.7 C188.15,118.7 188.6,120.95 188.6,125.3 C188.6,129.05 188.15,131 187.25,131 Z M201.541666,72.2 L201.541666,110.45 C201.541666,113.15 202.441666,115.4 204.391666,117.35 C206.341666,119.3 208.441666,120.2 210.991666,120.2 C213.691666,120.2 215.941666,119.3 217.891666,117.35 C219.841666,115.4 220.741666,113.15 220.741666,110.45 L220.741666,72.2 C220.741666,69.5 219.841666,67.25 217.891666,65.3 C215.941666,63.35 213.541666,62.45 210.991666,62.45 C208.441666,62.45 206.341666,63.35 204.391666,65.3 C202.441666,67.25 201.541666,69.5 201.541666,72.2 Z M227.191666,131 L222.391666,131 C221.641666,130.85 221.041666,130.4 220.891666,129.95 L220.441666,129.35 C220.141666,129.35 218.941666,129.8 216.841666,130.85 C214.891666,131.9 212.941666,132.35 210.991666,132.35 C204.991666,132.35 199.891666,130.25 195.691666,125.9 C191.341666,121.7 189.241666,116.6 189.241666,110.45 L189.241666,72.2 C189.241666,66.05 191.341666,60.95 195.691666,56.75 C199.891666,52.4 204.991666,50.3 210.991666,50.3 C212.041666,50.3 213.841666,50.6 216.091666,51.05 C218.341666,51.65 219.691666,51.95 220.141666,51.95 C220.591666,51.95 220.741666,51.65 220.741666,51.2 C220.741666,50.45 222.541666,50 225.991666,50 L227.191666,50 C230.341666,50.15 231.991666,52.25 232.441666,56.15 C232.741666,60.5 232.891666,72.05 232.891666,91.1 C232.891666,109.4 232.741666,120.65 232.441666,124.85 C231.991666,128.9 230.191666,131 227.191666,131 Z M252.883332,72.2 L252.883332,110.45 C252.883332,113.3 253.783332,115.55 255.733332,117.35 C257.683332,119.3 259.933332,120.2 262.633332,120.2 C265.333332,120.2 267.583332,119.3 269.383332,117.35 C271.333332,115.4 272.233332,113.15 272.233332,110.45 L272.233332,72.2 C272.233332,69.5 271.333332,67.25 269.383332,65.3 C267.433332,63.35 265.183332,62.45 262.633332,62.45 C259.933332,62.45 257.683332,63.35 255.733332,65.3 C253.783332,67.25 252.883332,69.5 252.883332,72.2 Z M254.08632,130.101195 L254.083332,130.1 C254.084356,130.1 254.085352,130.100398 254.08632,130.101195 Z M254.08632,130.101195 C254.227161,130.217123 253.776165,138.767741 252.733332,155.9 C252.283332,159.35 250.183332,161.15 246.733332,161.15 C243.583332,161.15 241.783332,159.35 241.333332,155.6 C240.883332,146 240.583332,129.2 240.583332,105.05 C240.583332,81.5 240.883332,65.15 241.333332,55.7 C241.783332,51.95 243.583332,50.15 246.733332,50.15 L251.233332,50.15 C252.133332,50.3 252.733332,50.75 252.883332,51.35 C253.033332,51.8 253.333332,52.1 253.483332,52.1 C253.633332,52.1 254.833332,51.8 257.083332,51.2 C259.183332,50.6 260.983332,50.3 262.633332,50.3 C268.633332,50.3 273.733332,52.4 278.083332,56.75 C282.433332,60.95 284.533332,66.05 284.533332,72.2 L284.533332,110.45 C284.533332,116.6 282.433332,121.7 278.083332,125.9 C273.733332,130.25 268.633332,132.35 262.633332,132.35 C261.433332,132.35 259.783332,132.05 257.833332,131.6 L254.08632,130.101195 Z M300.174998,109.25 L300.174998,110.45 C300.174998,113.15 301.074998,115.4 303.024998,117.35 C304.974998,119.3 307.224998,120.2 309.774998,120.2 C312.924998,120.2 315.324998,118.85 317.274998,116 C318.924998,113.6 319.674998,110.75 319.674998,107.3 C319.674998,100.25 315.774998,96.8 307.974998,96.8 C302.424998,96.8 297.774998,95 294.174998,91.25 C290.124998,87.2 288.024998,81.65 288.024998,74.45 C288.024998,68 289.824998,62.45 293.274998,57.95 C297.174998,52.85 302.724998,50.3 309.774998,50.3 C315.924998,50.3 321.024998,52.4 325.224998,56.75 C329.574998,60.95 331.674998,66.05 331.674998,72.2 L331.674998,73.25 C331.674998,74 331.224998,74.3 330.174998,74.45 L321.174998,74.45 C320.124998,74.3 319.674998,74 319.674998,73.25 L319.674998,72.2 C319.674998,69.5 318.774998,67.25 316.824998,65.3 C314.874998,63.35 312.474998,62.45 309.774998,62.45 C306.624998,62.45 304.074998,63.8 302.274998,66.5 C300.774998,68.75 300.024998,71.45 300.024998,74.6 C300.024998,79.25 301.824998,82.1 305.274998,83.45 C306.324998,83.9 308.124998,84.2 310.374998,84.35 C313.074998,84.65 314.874998,84.95 315.774998,85.1 C326.274998,87.5 331.524998,94.85 331.524998,107 C331.524998,114.05 329.874998,119.75 326.574998,124.4 C322.674998,129.65 317.124998,132.35 309.774998,132.35 C303.774998,132.35 298.674998,130.25 294.324998,125.9 C289.974998,121.7 287.874998,116.6 287.874998,110.45 L287.874998,109.25 C287.874998,108.65 288.324998,108.35 289.374998,108.2 L298.674998,108.2 C299.724998,108.35 300.174998,108.65 300.174998,109.25 Z M380.316664,72.2 L380.316664,122.3 C379.866664,127.85 378.066664,130.85 374.916664,131 C370.866664,131 368.616664,128.15 368.016664,122.6 L368.016664,72.2 C368.016664,69.5 367.116664,67.25 365.166664,65.3 C363.216664,63.35 360.966664,62.45 358.416664,62.45 C355.716664,62.45 353.466664,63.35 351.516664,65.3 C349.566664,67.25 348.666664,69.5 348.666664,72.2 L348.666664,101.75 C348.666664,114.95 348.666664,122 348.516664,122.9 C347.916664,128.3 345.816664,131 342.066664,131 C339.216664,131 337.566664,129.2 337.116664,125.6 C336.666664,116.15 336.366664,100.25 336.366664,77.6 C336.366664,54.35 336.666664,38.6 337.266664,30.65 C337.716664,27.5 339.366664,26 342.066664,26 C346.116664,26 348.216664,28.4 348.666664,33.35 C348.816664,34.85 348.966664,37.4 348.816664,41 C348.666664,44.9 348.666664,47.9 348.816664,49.85 C348.966664,50.9 349.566664,51.5 350.316664,51.5 C350.766664,51.5 351.966664,51.35 353.766664,50.9 C355.566664,50.45 357.066664,50.3 358.416664,50.3 C364.416664,50.3 369.516664,52.4 373.866664,56.75 C378.216664,60.95 380.316664,66.05 380.316664,72.2 Z M398.35833,72.2 L398.35833,110.45 C398.35833,113.15 399.25833,115.4 401.20833,117.35 C403.15833,119.3 405.25833,120.2 407.80833,120.2 C410.50833,120.2 412.75833,119.3 414.70833,117.35 C416.65833,115.4 417.55833,113.15 417.55833,110.45 L417.55833,72.2 C417.55833,69.5 416.65833,67.25 414.70833,65.3 C412.75833,63.35 410.35833,62.45 407.80833,62.45 C405.25833,62.45 403.15833,63.35 401.20833,65.3 C399.25833,67.25 398.35833,69.5 398.35833,72.2 Z M424.00833,131 L419.20833,131 C418.45833,130.85 417.85833,130.4 417.70833,129.95 L417.25833,129.35 C416.95833,129.35 415.75833,129.8 413.65833,130.85 C411.70833,131.9 409.75833,132.35 407.80833,132.35 C401.80833,132.35 396.70833,130.25 392.50833,125.9 C388.15833,121.7 386.05833,116.6 386.05833,110.45 L386.05833,72.2 C386.05833,66.05 388.15833,60.95 392.50833,56.75 C396.70833,52.4 401.80833,50.3 407.80833,50.3 C408.85833,50.3 410.65833,50.6 412.90833,51.05 C415.15833,51.65 416.50833,51.95 416.95833,51.95 C417.40833,51.95 417.55833,51.65 417.55833,51.2 C417.55833,50.45 419.35833,50 422.80833,50 L424.00833,50 C427.15833,50.15 428.80833,52.25 429.25833,56.15 C429.55833,60.5 429.70833,72.05 429.70833,91.1 C429.70833,109.4 429.55833,120.65 429.25833,124.85 C428.80833,128.9 427.00833,131 424.00833,131 Z M443.399996,131 L443.099996,131 C440.099996,131 438.299996,129.05 437.849996,125.3 C437.549996,119.6 437.399996,107.9 437.399996,90.2 C437.399996,72.95 437.549996,61.4 437.849996,55.85 C438.299996,52.1 440.099996,50.15 443.099996,50.15 L444.149996,50.15 C447.299996,50.15 448.949996,50.6 449.399996,51.5 L449.999996,53 L450.899996,52.7 C453.149996,51.35 455.849996,50.6 458.999996,50.6 L461.549996,50.75 C464.999996,50.75 466.799996,51.8 466.799996,53.75 C466.799996,55.55 466.349996,57.65 465.299996,60.05 C464.249996,62.3 463.649996,63.35 463.199996,63.35 L458.549996,62.45 C452.399996,62.45 449.399996,65.75 449.399996,72.2 L449.399996,122.45 C448.799996,128.15 446.849996,131 443.399996,131 Z M480.641662,72.2 L480.641662,110.45 C480.641662,113.3 481.541662,115.55 483.491662,117.35 C485.441662,119.3 487.691662,120.2 490.391662,120.2 C493.091662,120.2 495.341662,119.3 497.141662,117.35 C499.091662,115.4 499.991662,113.15 499.991662,110.45 L499.991662,72.2 C499.991662,69.5 499.091662,67.25 497.141662,65.3 C495.191662,63.35 492.941662,62.45 490.391662,62.45 C487.691662,62.45 485.441662,63.35 483.491662,65.3 C481.541662,67.25 480.641662,69.5 480.641662,72.2 Z M481.84465,130.101195 L481.841662,130.1 C481.842686,130.1 481.843682,130.100398 481.84465,130.101195 Z M481.84465,130.101195 C481.985491,130.217123 481.534495,138.767741 480.491662,155.9 C480.041662,159.35 477.941662,161.15 474.491662,161.15 C471.341662,161.15 469.541662,159.35 469.091662,155.6 C468.641662,146 468.341662,129.2 468.341662,105.05 C468.341662,81.5 468.641662,65.15 469.091662,55.7 C469.541662,51.95 471.341662,50.15 474.491662,50.15 L478.991662,50.15 C479.891662,50.3 480.491662,50.75 480.641662,51.35 C480.791662,51.8 481.091662,52.1 481.241662,52.1 C481.391662,52.1 482.591662,51.8 484.841662,51.2 C486.941662,50.6 488.741662,50.3 490.391662,50.3 C496.391662,50.3 501.491662,52.4 505.841662,56.75 C510.191662,60.95 512.291662,66.05 512.291662,72.2 L512.291662,110.45 C512.291662,116.6 510.191662,121.7 505.841662,125.9 C501.491662,130.25 496.391662,132.35 490.391662,132.35 C489.191662,132.35 487.541662,132.05 485.591662,131.6 L481.84465,130.101195 Z"/>
    <path stroke="#EF0D33" stroke-linecap="round" stroke-width="6.16" d="M8.20396853,54.7668248 C0.769298702,69.3538062 -1.98575135,86.4766048 1.48919725,103.790754 M148,74.1083934 C144.057034,54.4610004 132.815111,38.163647 117.682163,27.4940234 M1.5294088,103.783459 C1.74610441,104.86142 1.98402278,105.92928 2.24372241,106.98704 M55.4519878,161.498413 C72.1939573,142.352684 80.1647812,115.854825 74.7641459,88.9456457 M61.9986525,132.906919 C58.3377255,142.333044 52.8153385,150.93709 45.7911616,158.173063 M65.9142527,163.521904 C82.1390569,142.661314 89.5396586,115.076516 83.9228862,87.0910593 L83.9519279,87.0815199 C82.9265332,81.9728498 77.9743684,78.6665795 72.8898406,79.696843 C67.8058713,80.7271064 64.5157842,85.702785 65.5406203,90.8120162 L65.6070811,90.8007933 C67.699199,101.227441 67.5338848,111.585629 65.4484689,121.363592 M57.158745,96.8847345 C60.0880451,118.601633 52.0122244,139.577819 36.9624912,153.724862 M95.1273894,105.464652 C95.1089591,98.7926298 94.4421174,92.0252131 93.079951,85.2359118 L93.1006153,85.2280557 C91.0570863,75.0421397 81.182357,68.4492394 71.044577,70.5035936 C63.4719592,72.0377659 57.8942814,77.9623417 56.4103633,85.1085317 M77.1321597,164 C86.4835804,150.269327 92.5499403,134.29351 94.4706006,117.369918 M76.9405964,60.8333705 C74.4111778,60.6352861 71.811389,60.7811839 69.2004304,61.3103443 C54.0088398,64.3882282 44.1771145,79.2552213 47.2404531,94.5200667 L47.2929515,94.5110884 C51.4358587,115.156759 43.7783499,135.439931 28.9860823,148.31149 M89.0476255,162.639783 C102.511795,139.577819 107.911313,111.65016 102.237574,83.3802031 L102.250978,83.3745916 C100.562651,74.9641405 95.3122508,68.1883066 88.3964217,64.314157 M35.9063794,122.612141 C32.9865736,130.165722 28.1561605,136.877586 21.8909768,142.033953 M112.211716,125.456027 C114.536167,111.278121 114.389841,96.4464798 111.395756,81.5256167 L111.401341,81.5216887 C107.318751,61.1801585 87.6000095,48.0162425 67.3557253,52.1176561 C47.110324,56.2196309 34.0080588,76.0325618 38.0906487,96.3746531 L38.1342112,96.3656748 C39.1037565,101.197139 39.2981124,106.005035 38.8027284,110.658055 M101.55677,159.040034 C104.945711,152.050403 107.681772,144.719596 109.700727,137.143569 M112.536759,61.3159558 C116.380872,66.6170988 119.175575,72.8171972 120.551145,79.6682246 L120.553938,79.6704691 C125.633439,104.980383 123.102345,130.055177 114.55348,152.510543 M55.2375262,46.2738852 C58.4544507,44.7924607 61.8908632,43.657263 65.5099032,42.9244068 C79.8123716,40.0272117 93.9048464,44.0253745 104.374372,52.6406439 M15.6989557,134.989892 C26.255606,126.468895 31.8371933,112.47785 28.9749125,98.2213835 L28.9397274,98.2292395 C25.3843557,80.5155545 32.2571807,63.1228448 45.3119739,52.4711779 M18.7198488,91.1790055 C18.839925,94.1250202 19.1912176,97.1002145 19.789923,100.082704 L19.8184062,100.075409 C21.913875,110.516646 17.978169,120.771022 10.4239815,127.202873 M130.980459,85.1074094 C130.621906,82.6798933 130.199126,80.2490103 129.711561,77.8158827 L129.700391,77.8153216 C123.580416,47.3181773 94.0171036,27.5826844 63.6651981,33.7311574 C40.3397034,38.4571262 23.3380343,57.094457 19.4950382,79.3124582 M127.793135,141.840358 C131.605414,127.473346 133.190419,112.344297 132.222549,96.9324319 M83.5073668,23.8162748 C76.4748125,22.861766 69.1680378,23.0497498 61.8210515,24.5384692 C26.4142183,31.711033 3.49977502,66.3617775 10.6390016,101.936168 L10.6607829,101.930556 C11.9000807,108.103159 9.97662794,114.176438 6.01802369,118.467519 M140.706071,124.241708 C142.649071,108.560492 142.149219,92.3035414 138.869184,75.960174 L138.850754,75.9612963 C133.995767,51.7691846 116.493688,33.382686 94.657696,26.3487251"/>
  </g>
</svg>
